<svg xmlns="http://www.w3.org/2000/svg" xmlns:xlink="http://www.w3.org/1999/xlink">

    <defs>
        <symbol id="cthiebaud-symbol" preserveAspectRatio="xMidYMid slice" viewBox="0 0 382.07 377.86">
            <path
                d="M93.832 377.709c-21.112-1.858-38.24-9.37-53.95-23.664-5.08-4.622-9.224-9.262-14.454-16.181C11.66 319.647 3.735 299.304.79 274.614c-.785-6.585-.79-6.7-.789-18.75.003-12.034.008-12.178.811-19.25 3.088-27.162 11.52-49.436 26.027-68.75 4.202-5.594 6.978-8.741 11.89-13.479 17.442-16.823 39.576-26.865 65.854-29.875 5.85-.67 10.164-.894 17.25-.894 9.42 0 16.454.707 24.524 2.466 2.82.615 3.248.657 3.133.31-.073-.222-.808-2.372-1.633-4.778-4.187-12.221-6.55-23.3-7.536-35.332-.432-5.27-.18-15.74.485-20.223 1.447-9.744 4.553-18.708 9.293-26.824 11.336-19.405 29.848-32.269 53.36-37.077C212.406.328 215.935.014 227.708 0c8.056-.01 11.212.083 14.75.434 23.78 2.357 41.102 9.522 53.015 21.929 10.091 10.51 15.863 23.818 18.161 41.875.522 4.103.544 5.271.632 33.812l.09 29.563h54.976v17.75h-55.028l.111 78.437c.072 55.82.184 79.52.389 82.188 1.086 14.195 2.866 22.98 6.152 30.37 2.643 5.944 6.677 10.315 11.136 12.067 2.737 1.075 4.1 1.263 8.153 1.125 11.535-.395 21.91-5.793 32.487-16.905l2.265-2.38 3.533 2.987c1.942 1.642 3.539 3.049 3.547 3.126.01.077-.962 1.315-2.157 2.75-16.583 19.923-33.949 32.172-52.226 36.84-4.974 1.27-10.298 1.895-16.134 1.895-16.34 0-27.51-5.106-34.278-15.67-4.183-6.53-7.249-19.946-8.558-37.455-.732-9.795-.872-26.123-.877-102.848v-76.598l-10.187.129c-13.124.166-16.41-.11-19.085-1.604-1.753-.979-2.074-2.279-1.236-4.993l.492-1.592 3.696-2.62c6.637-4.706 12.791-10.024 21.383-18.478l4.937-4.859v-10.644c0-16.29-.983-24.346-4.16-34.143-7.28-22.439-24.682-33.892-51.464-33.87-7.978.007-13.147.6-19.66 2.26-5.943 1.513-11.928 4.159-16.818 7.434-10.838 7.257-16.968 16.986-18.902 30.002-.625 4.201-.673 12.004-.105 16.998 1.433 12.613 5.504 26.432 12.315 41.8 1.289 3.228 1.01 3.115 3.833 4.632 11.49 6.172 20.256 13.867 24.914 21.869 2.144 3.682 3.66 7.467 4.592 11.455.745 3.19.8 3.74.815 8.17.016 4.73.012 4.76-.801 7.14-2.36 6.902-9.84 13.83-16.933 15.684-2.525.66-8.054.96-10.442.568-5.494-.903-10.021-3.568-14.239-8.38-2.43-2.773-4.1-5.546-5.127-8.512-.871-2.514-.981-3.274-1.309-9.048-.481-8.47-2.143-14.385-5.534-19.702-1.52-2.382-5.872-6.794-8.225-8.336-4.532-2.97-10.56-5.08-17.75-6.212-2.343-.368-4.284-.448-10.5-.43-7.485.023-7.703.038-11.875.825-18.364 3.466-32.456 14.023-43.75 32.775-8.038 13.347-12.957 28.758-14.804 46.378-.687 6.548-.612 22.714.134 29.326 2.29 20.27 8.313 37.366 18.691 53.049 4.014 6.065 7.612 10.522 12.222 15.138 11.714 11.732 24.718 18.367 40.907 20.874 4.318.668 14.628.946 18.775.505 24.96-2.652 47.668-18.625 68.178-47.955 1.274-1.821 2.374-3.312 2.444-3.312.113 0 7.341 4.198 7.53 4.374.043.04-1.181 2.587-2.72 5.661-12.237 24.456-26.382 43.31-42.746 56.98-12.74 10.64-27.745 18.024-43.11 21.215-7.002 1.453-10.677 1.812-19.376 1.892-4.33.04-8.38.027-9-.027z" />
        </symbol>

        <symbol id="bach_siel_full_left-symbol" preserveAspectRatio="xMidYMid meet" viewBox="0 0 120 120">
            <path fill="none" stroke="#1E3A8A" stroke-miterlimit="10" stroke-width=".035"
                d="M56.03 8.592c.518-3.53 4.943-3.56 3.058.404.625 7.064 8.027 10.545 13.806 12.982 2.3 1.11 7.473 1.571 2.666 3.211-12.916 8.786-19.648 23.843-31.735 33.574-7.926 6.831-19.556 10.883-29.69 6.889-5.26-2.224-8.29-8.206-7.424-13.776-3.237-.956-6.271-10.06-1.499-8.298.642 2.294 2.028 7.086 3.238 2.442 2.408 4.134-.735 10.488 3.184 14.57 6.47 6.107 16.932 3.824 23.192-1.47 8.133-6.523 13.326-15.89 21.248-22.666 4.314-4.685 12.216-9.293 15.5-12.528-9.595-2.637-17.311-9.752-27.037-11.922-8.835-1.367-18.275 5.702-18.315 14.918-2.446 5.39 7.548 3.875 3.923 9.602-5.013 3.55-6.956-2.771-5.668-6.497-.71-6.233 1.26-13.029 6.149-17.17-2.719.706-9.94-.426-4.428-3.27 5.455 1.09 10.881.014 16.243-1.228 5.213-.027 10.253 1.868 14.699 4.478-.275-1.443-1.414-2.698-1.11-4.245z" />
            <path fill="#1E3A8A"
                d="M56.03 8.592c.518-3.53 4.943-3.56 3.058.404.625 7.064 8.027 10.545 13.806 12.982 2.3 1.11 7.473 1.571 2.666 3.211-12.916 8.786-19.648 23.843-31.735 33.574-7.926 6.831-19.556 10.883-29.69 6.889-5.26-2.224-8.29-8.206-7.424-13.776-3.237-.956-6.271-10.06-1.499-8.298.642 2.294 2.028 7.086 3.238 2.442 2.408 4.134-.735 10.488 3.184 14.57 6.47 6.107 16.932 3.824 23.192-1.47 8.133-6.523 13.326-15.89 21.248-22.666 4.314-4.685 12.216-9.293 15.5-12.528-9.595-2.637-17.311-9.752-27.037-11.922-8.835-1.367-18.275 5.702-18.315 14.918-2.446 5.39 7.548 3.875 3.923 9.602-5.013 3.55-6.956-2.771-5.668-6.497-.71-6.233 1.26-13.029 6.149-17.17-2.719.706-9.94-.426-4.428-3.27 5.455 1.09 10.881.014 16.243-1.228 5.213-.027 10.253 1.868 14.699 4.478-.275-1.443-1.414-2.698-1.11-4.245z" />
            <path fill="none" stroke="#1E3A8A" stroke-miterlimit="10" stroke-width=".035"
                d="M108.102 24.148c2.022-4.029 13.413-.828 5.87 1.317-2.576.162-4.729-.01-1.663 2.019 5.572 5.178 7.5 15.506 1.143 20.822-4.498 4.02-11.439-1.152-9.624-6.578.593-6.409 12.089-3.485 6.382 1.612-3.153 1.918-6.052-4.43-5.082 1.458 2.111 6.622 10.904 2.19 10.316-3.514 1.5-9.101-7.31-17.42-16.27-16.109-7.769.385-11.946 7.626-15.894 13.281-9.902 14.434-16.89 31.779-31.976 41.857-9.636 6.88-23.867 7.26-33.559.331-2.91-3.383-4.647-6.753-9.314-7.779-3.52-3.807 3.311-3.938 4.753-.914-.617-2.071-.386-7.9 1.603-3.943-.76 7.089 5.032 13.39 11.941 14.204 10.73 2.07 20.152-5.137 27.386-12.11 11.801-11.299 17.571-27.157 28.473-39.145 6.348-6.812 16.575-10.489 25.515-6.81z" />
            <path fill="#1E3A8A"
                d="M108.102 24.148c2.022-4.029 13.413-.828 5.87 1.317-2.576.162-4.729-.01-1.663 2.019 5.572 5.178 7.5 15.506 1.143 20.822-4.498 4.02-11.439-1.152-9.624-6.578.593-6.409 12.089-3.485 6.382 1.612-3.153 1.918-6.052-4.43-5.082 1.458 2.111 6.622 10.904 2.19 10.316-3.514 1.5-9.101-7.31-17.42-16.27-16.109-7.769.385-11.946 7.626-15.894 13.281-9.902 14.434-16.89 31.779-31.976 41.857-9.636 6.88-23.867 7.26-33.559.331-2.91-3.383-4.647-6.753-9.314-7.779-3.52-3.807 3.311-3.938 4.753-.914-.617-2.071-.386-7.9 1.603-3.943-.76 7.089 5.032 13.39 11.941 14.204 10.73 2.07 20.152-5.137 27.386-12.11 11.801-11.299 17.571-27.157 28.473-39.145 6.348-6.812 16.575-10.489 25.515-6.81z" />
            <path fill="none" stroke="#F8F8FF" stroke-miterlimit="10" stroke-width=".035"
                d="M81.972 35.07c1.538-2.17 6.342-7.107 2.618-1.922-7.467 11.343-14.134 23.267-22.513 33.973C56 74.214 48.554 80.99 39.208 83.163 53.981 76.67 64.061 63.172 71.995 49.63c3.137-4.979 6.373-9.905 9.977-14.56z" />
            <path fill="#F8F8FF"
                d="M81.972 35.07c1.538-2.17 6.342-7.107 2.618-1.922-7.467 11.343-14.134 23.267-22.513 33.973C56 74.214 48.554 80.99 39.208 83.163 53.981 76.67 64.061 63.172 71.995 49.63c3.137-4.979 6.373-9.905 9.977-14.56z" />
            <path fill="none" stroke="#F8F8FF" stroke-miterlimit="10" stroke-width=".035"
                d="M58.44 37.622c1.493-1.585 8.937-8.972 4.904-3.982-8.693 10.728-17.98 21.336-29.488 29.106-3.538 1.273 3.831-3.176 4.883-4.81 6.864-6.478 13.138-13.54 19.701-20.314z" />
            <path fill="#F8F8FF"
                d="M58.44 37.622c1.493-1.585 8.937-8.972 4.904-3.982-8.693 10.728-17.98 21.336-29.488 29.106-3.538 1.273 3.831-3.176 4.883-4.81 6.864-6.478 13.138-13.54 19.701-20.314z" />
            <path fill="none" stroke="#1E3A8A" stroke-miterlimit="10" stroke-width=".035"
                d="M75.452 69.094c6.154-8.643 11.498-17.824 16.726-27.046 7.454 3.187 16.077 8.783 16.484 17.744.198 9.072-8.592 18.075-17.934 15.662-6.039-.247-5.81-9.95.84-6.867 2.776.197 7.852 5.422 2.627 3.029-2.162-2.726-9.574-1.849-4.367 1.602 6.85 3.361 13.167-3.58 14.701-9.782 2.414-6.743-1.377-14.205-7.583-17.319-4.888-4.059-4.36 6.11-6.92 8.832-5.932 14.174-15.624 26.591-27.78 35.957-1.461 1.704-8.226 6.308-4.594 2.13 13.635-10.95 24.843-25.195 31.426-41.452-7.67 14.455-17.81 27.7-29.944 38.688-1.171 2.04-6.978 4.599-3.463.966 7.315-6.69 14.066-14.033 19.781-22.144z" />
            <path fill="#1E3A8A"
                d="M75.452 69.094c6.154-8.643 11.498-17.824 16.726-27.046 7.454 3.187 16.077 8.783 16.484 17.744.198 9.072-8.592 18.075-17.934 15.662-6.039-.247-5.81-9.95.84-6.867 2.776.197 7.852 5.422 2.627 3.029-2.162-2.726-9.574-1.849-4.367 1.602 6.85 3.361 13.167-3.58 14.701-9.782 2.414-6.743-1.377-14.205-7.583-17.319-4.888-4.059-4.36 6.11-6.92 8.832-5.932 14.174-15.624 26.591-27.78 35.957-1.461 1.704-8.226 6.308-4.594 2.13 13.635-10.95 24.843-25.195 31.426-41.452-7.67 14.455-17.81 27.7-29.944 38.688-1.171 2.04-6.978 4.599-3.463.966 7.315-6.69 14.066-14.033 19.781-22.144z" />
            <path fill="none" stroke="#1E3A8A" stroke-miterlimit="10" stroke-width=".035"
                d="M97.108 77.205c5.262-2.037 2.94 8.045 2.559 11.26-1.644 3.385-2.496 7.04 1.886 3.713 2.02-3.975 9.325-.917 3.58 1.552-4.396 2.057-9.286-.136-10.928 5.548-1.741 2.671-6.832 6.398-.645 5.648 6.858 3.11-4.483 5.888-6.074 1.195-4.008 2.615-9.032 3.302-13.703 2.583 2.455 1.974 3.315 8.002-.941 4.382-1.835-6.427-9.226-6.203-13.44-11.261-4.125-3.239-7.643-9.122-13.703-7.931-6.14 1.83 3.122 4.444 5.193 1.574 5.014 3.971-6.932 4.241-9.206 1.871-2.233-7.533 10.15-6.129 13.546-2.152 7.107 7.46 18.572 12.209 28.5 7.588 9.765-4.152 14.956-15.338 13.376-25.57z" />
            <path fill="#1E3A8A"
                d="M97.108 77.205c5.262-2.037 2.94 8.045 2.559 11.26-1.644 3.385-2.496 7.04 1.886 3.713 2.02-3.975 9.325-.917 3.58 1.552-4.396 2.057-9.286-.136-10.928 5.548-1.741 2.671-6.832 6.398-.645 5.648 6.858 3.11-4.483 5.888-6.074 1.195-4.008 2.615-9.032 3.302-13.703 2.583 2.455 1.974 3.315 8.002-.941 4.382-1.835-6.427-9.226-6.203-13.44-11.261-4.125-3.239-7.643-9.122-13.703-7.931-6.14 1.83 3.122 4.444 5.193 1.574 5.014 3.971-6.932 4.241-9.206 1.871-2.233-7.533 10.15-6.129 13.546-2.152 7.107 7.46 18.572 12.209 28.5 7.588 9.765-4.152 14.956-15.338 13.376-25.57z" />
        </symbol>

        <symbol id="bach_siel_full_right-symbol" preserveAspectRatio="xMidYMid slice" viewBox="0 0 120 120">
            <path fill="none" stroke="#D4AF37" stroke-miterlimit="10" stroke-width=".035"
                d="M67.127 7.355c.4-.934.945-2.068 2.07-2.243.716-.19 1.188.557 1.31 1.157.17 1.357-.29 2.677-.607 3.977 4.356-1.196 9.057-1.515 13.44-.28 3.323 1.165 6.642 2.68 10.225 2.726 1.365.057 2.487-1.124 3.857-.838.96.812.308 2.449-.697 2.943-1.835.889-3.936.749-5.908 1.008 2.78 5.007 3.526 11.458.656 16.595 1.29 2.501-.637 6.135-3.582 5.966-1.834.09-3.582-1.714-3-3.57.385-2.34 2.999-3.411 5.141-3.154 3.492-6.083.629-14.554-5.452-17.779-3.526-1.832-7.736-1.745-11.469-.63-6.83 1.988-13.151 5.328-19.591 8.285-2.11.939-4.197 1.977-6.451 2.524 5.319 3.09 10.025 7.116 14.595 11.205C68.618 41.602 75.05 48.51 81.13 55.703c1.533 1.755 2.894 3.696 4.754 5.136 3.188 2.66 7.332 4.28 11.514 4.049 3.914-.218 7.66-2.175 10.163-5.176 2.637-3.136 3.665-7.535 2.756-11.523.353-.45.713-.893 1.087-1.33.607.998 1.019 2.102 1.081 3.278a6.028 6.028 0 0 0 2.07-2.083c.505-.854 1.506-1.714 2.55-1.195.79.794.655 2.199.062 3.074-1.211 1.36-2.945 2.096-4.632 2.675-.083 5.195-3.542 9.837-8.023 12.221-7.054 3.678-16.007 2.902-22.666-1.295-4.829-3.183-8.958-7.302-12.706-11.679-8.844-10.284-18.281-20.13-28.995-28.494 5.917.177 11.586-2.19 16.459-5.382 4.213-2.66 8.757-5.726 10.524-10.624zm0 0" />
            <path fill="#D4AF37"
                d="M67.127 7.355c.4-.934.945-2.068 2.07-2.243.716-.19 1.188.557 1.31 1.157.17 1.357-.29 2.677-.607 3.977 4.356-1.196 9.057-1.515 13.44-.28 3.323 1.165 6.642 2.68 10.225 2.726 1.365.057 2.487-1.124 3.857-.838.96.812.308 2.449-.697 2.943-1.835.889-3.936.749-5.908 1.008 2.78 5.007 3.526 11.458.656 16.595 1.29 2.501-.637 6.135-3.582 5.966-1.834.09-3.582-1.714-3-3.57.385-2.34 2.999-3.411 5.141-3.154 3.492-6.083.629-14.554-5.452-17.779-3.526-1.832-7.736-1.745-11.469-.63-6.83 1.988-13.151 5.328-19.591 8.285-2.11.939-4.197 1.977-6.451 2.524 5.319 3.09 10.025 7.116 14.595 11.205C68.618 41.602 75.05 48.51 81.13 55.703c1.533 1.755 2.894 3.696 4.754 5.136 3.188 2.66 7.332 4.28 11.514 4.049 3.914-.218 7.66-2.175 10.163-5.176 2.637-3.136 3.665-7.535 2.756-11.523.353-.45.713-.893 1.087-1.33.607.998 1.019 2.102 1.081 3.278a6.028 6.028 0 0 0 2.07-2.083c.505-.854 1.506-1.714 2.55-1.195.79.794.655 2.199.062 3.074-1.211 1.36-2.945 2.096-4.632 2.675-.083 5.195-3.542 9.837-8.023 12.221-7.054 3.678-16.007 2.902-22.666-1.295-4.829-3.183-8.958-7.302-12.706-11.679-8.844-10.284-18.281-20.13-28.995-28.494 5.917.177 11.586-2.19 16.459-5.382 4.213-2.66 8.757-5.726 10.524-10.624zm0 0" />
            <path fill="none" stroke="#D4AF37" stroke-miterlimit="10" stroke-width=".035"
                d="M6.38 19.656c.962-.755 2.357-.65 3.428-.187a11.333 11.333 0 0 1 4.435 3.605c5.83-.772 11.808.986 16.592 4.328 4.42 3.059 7.84 7.339 10.568 11.928 7.086 11.075 15.15 21.625 24.743 30.656 4.436 4.121 9.228 7.917 14.572 10.799 3.679 1.927 7.613 3.59 11.777 4.029 5.23.013 10.367-3.54 12.125-8.481.902-3.346.764-6.885.382-10.298a135.4 135.4 0 0 1 1.911-1.027c.518 3.291.468 6.635.076 9.937 1.779-1.232 3.288-2.855 5.218-3.86.902-.455 2.385-.827 2.949.307.6 1.546-.677 3.167-2.05 3.782-2.314.908-4.69 1.66-6.986 2.616-2.088 4.347-6.111 7.777-10.83 8.899-4.82 1.198-9.886.26-14.46-1.449-10.347-3.971-19.55-10.648-26.96-18.847-2.861-3.136-5.476-6.484-8.094-9.821-3.382-4.842-6.146-10.08-9.392-15.011-3.154-4.841-6.557-9.657-11.1-13.302-2.796-2.212-6.482-3.856-10.09-2.923-3.335.873-6.146 3.202-8.112 5.98C5.104 34.132 4.006 37.792 5 41.182c.79 2.987 3.296 5.54 6.381 6.08 1.814.364 3.943-.23 4.988-1.838.715-1.01.82-2.286.829-3.485-.921 1.034-2.26 1.864-3.696 1.48-2.252-.509-2.773-3.694-1.312-5.258 1.283-1.513 3.997-1.4 5.078.302 1.738 2.583 1.474 6.409-.65 8.699-1.88 1.946-4.927 2.014-7.346 1.187-2.598-.85-4.614-2.981-5.698-5.446-1.413-3.158-1.717-6.918-.334-10.14 1.528-3.654 4.671-6.417 8.139-8.2-1.66-.55-3.444-1.069-4.718-2.33-.654-.64-1.1-1.9-.282-2.577zm0 0" />
            <path fill="#D4AF37"
                d="M6.38 19.656c.962-.755 2.357-.65 3.428-.187a11.333 11.333 0 0 1 4.435 3.605c5.83-.772 11.808.986 16.592 4.328 4.42 3.059 7.84 7.339 10.568 11.928 7.086 11.075 15.15 21.625 24.743 30.656 4.436 4.121 9.228 7.917 14.572 10.799 3.679 1.927 7.613 3.59 11.777 4.029 5.23.013 10.367-3.54 12.125-8.481.902-3.346.764-6.885.382-10.298a135.4 135.4 0 0 1 1.911-1.027c.518 3.291.468 6.635.076 9.937 1.779-1.232 3.288-2.855 5.218-3.86.902-.455 2.385-.827 2.949.307.6 1.546-.677 3.167-2.05 3.782-2.314.908-4.69 1.66-6.986 2.616-2.088 4.347-6.111 7.777-10.83 8.899-4.82 1.198-9.886.26-14.46-1.449-10.347-3.971-19.55-10.648-26.96-18.847-2.861-3.136-5.476-6.484-8.094-9.821-3.382-4.842-6.146-10.08-9.392-15.011-3.154-4.841-6.557-9.657-11.1-13.302-2.796-2.212-6.482-3.856-10.09-2.923-3.335.873-6.146 3.202-8.112 5.98C5.104 34.132 4.006 37.792 5 41.182c.79 2.987 3.296 5.54 6.381 6.08 1.814.364 3.943-.23 4.988-1.838.715-1.01.82-2.286.829-3.485-.921 1.034-2.26 1.864-3.696 1.48-2.252-.509-2.773-3.694-1.312-5.258 1.283-1.513 3.997-1.4 5.078.302 1.738 2.583 1.474 6.409-.65 8.699-1.88 1.946-4.927 2.014-7.346 1.187-2.598-.85-4.614-2.981-5.698-5.446-1.413-3.158-1.717-6.918-.334-10.14 1.528-3.654 4.671-6.417 8.139-8.2-1.66-.55-3.444-1.069-4.718-2.33-.654-.64-1.1-1.9-.282-2.577zm0 0" />
            <path fill="none" stroke="#F8F8FF" stroke-miterlimit="10" stroke-width=".035"
                d="M45.673 25.29c5.725 3.314 10.769 7.684 15.64 12.129 4.753 4.67 9.266 9.58 13.738 14.52 2.44 2.605 4.47 5.601 7.241 7.89 2.61 2.307 5.577 4.208 8.816 5.503-6.237-.751-11.331-5.034-15.263-9.658-9.184-10.951-19.3-21.11-30.172-30.384zm0 0" />
            <path fill="#F8F8FF"
                d="M45.673 25.29c5.725 3.314 10.769 7.684 15.64 12.129 4.753 4.67 9.266 9.58 13.738 14.52 2.44 2.605 4.47 5.601 7.241 7.89 2.61 2.307 5.577 4.208 8.816 5.503-6.237-.751-11.331-5.034-15.263-9.658-9.184-10.951-19.3-21.11-30.172-30.384zm0 0" />
            <path fill="none" stroke="#F8F8FF" stroke-miterlimit="10" stroke-width=".035"
                d="M27.885 27.662c4.37 2.76 7.793 6.754 10.783 10.915 4.873 6.828 8.71 14.362 13.978 20.913 3.315 3.95 6.566 8.002 10.507 11.357 4.917 4.23 10.37 7.772 15.809 11.286-4.18-1.64-8.008-4.061-11.682-6.615-10.93-7.615-19.209-18.403-25.916-29.779-3.681-6.568-7.956-12.908-13.479-18.077zm0 0" />
            <path fill="#F8F8FF"
                d="M27.885 27.662c4.37 2.76 7.793 6.754 10.783 10.915 4.873 6.828 8.71 14.362 13.978 20.913 3.315 3.95 6.566 8.002 10.507 11.357 4.917 4.23 10.37 7.772 15.809 11.286-4.18-1.64-8.008-4.061-11.682-6.615-10.93-7.615-19.209-18.403-25.916-29.779-3.681-6.568-7.956-12.908-13.479-18.077zm0 0" />
            <path fill="none" stroke="#D4AF37" stroke-miterlimit="10" stroke-width=".035"
                d="M17.542 50.223c3.16-2.997 7.122-5.02 11.209-6.438a209.631 209.631 0 0 0 19.823 34.95c3.666 5.187 7.616 10.178 11.902 14.868 2.897 3.223 7.224 5.109 11.552 5.08 1.242-.102 2.78-.275 3.501-1.446.452-.966-.427-1.854-1.184-2.321-1.837-1.075-4.152-1.42-6.187-.745-1 .37-1.84 1.045-2.743 1.59a74.59 74.59 0 0 1-1.866-1.306c2.014-2.027 5.044-2.63 7.802-2.326 1.832.19 3.811.707 5.042 2.178.985 1.13 1.062 2.995.051 4.135-1.248 1.474-3.268 1.947-5.121 1.967-3.478.023-6.815-1.21-9.905-2.704-6.02-2.924-11.161-7.378-15.583-12.35-4.27-4.853-7.845-10.288-10.865-15.994-3.66-7.026-6.583-14.496-8.068-22.297-4.001 1.505-7.643 4.468-9.181 8.548-1.397 3.505-.972 7.403-.027 10.965.565 2.096 1.446 4.25 3.212 5.621-.393.876-.776 1.756-1.169 2.632-3.237-2.257-5.989-5.464-6.934-9.368-1.374-5.464.778-11.372 4.74-15.239zm0 0" />
            <path fill="#D4AF37"
                d="M17.542 50.223c3.16-2.997 7.122-5.02 11.209-6.438a209.631 209.631 0 0 0 19.823 34.95c3.666 5.187 7.616 10.178 11.902 14.868 2.897 3.223 7.224 5.109 11.552 5.08 1.242-.102 2.78-.275 3.501-1.446.452-.966-.427-1.854-1.184-2.321-1.837-1.075-4.152-1.42-6.187-.745-1 .37-1.84 1.045-2.743 1.59a74.59 74.59 0 0 1-1.866-1.306c2.014-2.027 5.044-2.63 7.802-2.326 1.832.19 3.811.707 5.042 2.178.985 1.13 1.062 2.995.051 4.135-1.248 1.474-3.268 1.947-5.121 1.967-3.478.023-6.815-1.21-9.905-2.704-6.02-2.924-11.161-7.378-15.583-12.35-4.27-4.853-7.845-10.288-10.865-15.994-3.66-7.026-6.583-14.496-8.068-22.297-4.001 1.505-7.643 4.468-9.181 8.548-1.397 3.505-.972 7.403-.027 10.965.565 2.096 1.446 4.25 3.212 5.621-.393.876-.776 1.756-1.169 2.632-3.237-2.257-5.989-5.464-6.934-9.368-1.374-5.464.778-11.372 4.74-15.239zm0 0" />
            <path fill="none" stroke="#F8F8FF" stroke-miterlimit="10" stroke-width=".035"
                d="m29.737 51.749.499.518c3.302 7.152 7.256 14.002 11.51 20.633 4.683 7.178 9.74 14.187 15.884 20.198-5.167-3.473-9.344-8.214-13.039-13.176-5.89-7.92-10.156-16.896-13.838-26.012-.11-.841-.823-1.371-1.016-2.161zm0 0" />
            <path fill="#F8F8FF"
                d="m29.737 51.749.499.518c3.302 7.152 7.256 14.002 11.51 20.633 4.683 7.178 9.74 14.187 15.884 20.198-5.167-3.473-9.344-8.214-13.039-13.176-5.89-7.92-10.156-16.896-13.838-26.012-.11-.841-.823-1.371-1.016-2.161zm0 0" />
            <path fill="none" stroke="#D4AF37" stroke-miterlimit="10" stroke-width=".035"
                d="M26.189 68.026c1.648-.881 3.751-1.578 5.53-.663 2.048 1.053 2.313 4.204.618 5.698-1.945 1.815-4.74 2.306-7.311 2.363.108-.663.191-1.33.35-1.982 1.734-.152 3.639-.07 5.141-1.1.964-.605 1.394-2.062.657-3-.672-.794-1.856-.77-2.757-.446-1.953.688-3.334 2.42-4.168 4.252-.935 2.149-1.307 4.515-1.27 6.85-.016 5.727 1.451 11.59 4.928 16.222 3.512 4.854 9.024 8.561 15.137 8.797 6.01.219 11.543-2.962 15.8-6.965.866.42 1.742.824 2.605 1.26-3.259 3.603-7.274 6.603-11.864 8.27.199 1.148.39 2.365.06 3.505-.562 1.36-1.427 2.682-2.713 3.452-.78.501-1.904.546-2.602-.112-.647-.756-.417-1.947.258-2.605.975-1.103 2.365-2.095 2.431-3.707-4.695.989-9.881.737-13.961-2.027-1.824 2.08-4.466 3.517-7.253 3.633-.594.041-1.386-.122-1.523-.804.093-1.29 1.269-2.164 2.374-2.622 1.54-.659 3.612.193 4.817-1.25-4.312-2.824-7.687-6.985-9.671-11.732-2.446.15-5.173-.643-6.54-2.816-.591-1.025-1.177-2.352-.56-3.492.35-.517 1.036-.443 1.575-.384 2.163.553 2.61 3.608 4.976 3.747-1.026-4.795-1.487-9.835-.401-14.659.712-3.1 2.443-6.16 5.337-7.683zm0 0" />
            <path fill="#D4AF37"
                d="M26.189 68.026c1.648-.881 3.751-1.578 5.53-.663 2.048 1.053 2.313 4.204.618 5.698-1.945 1.815-4.74 2.306-7.311 2.363.108-.663.191-1.33.35-1.982 1.734-.152 3.639-.07 5.141-1.1.964-.605 1.394-2.062.657-3-.672-.794-1.856-.77-2.757-.446-1.953.688-3.334 2.42-4.168 4.252-.935 2.149-1.307 4.515-1.27 6.85-.016 5.727 1.451 11.59 4.928 16.222 3.512 4.854 9.024 8.561 15.137 8.797 6.01.219 11.543-2.962 15.8-6.965.866.42 1.742.824 2.605 1.26-3.259 3.603-7.274 6.603-11.864 8.27.199 1.148.39 2.365.06 3.505-.562 1.36-1.427 2.682-2.713 3.452-.78.501-1.904.546-2.602-.112-.647-.756-.417-1.947.258-2.605.975-1.103 2.365-2.095 2.431-3.707-4.695.989-9.881.737-13.961-2.027-1.824 2.08-4.466 3.517-7.253 3.633-.594.041-1.386-.122-1.523-.804.093-1.29 1.269-2.164 2.374-2.622 1.54-.659 3.612.193 4.817-1.25-4.312-2.824-7.687-6.985-9.671-11.732-2.446.15-5.173-.643-6.54-2.816-.591-1.025-1.177-2.352-.56-3.492.35-.517 1.036-.443 1.575-.384 2.163.553 2.61 3.608 4.976 3.747-1.026-4.795-1.487-9.835-.401-14.659.712-3.1 2.443-6.16 5.337-7.683zm0 0" />
        </symbol>
    </defs>

    <view preserveAspectRatio="xMidYMid meet " viewBox="0 400 100 100" id="bach_siel_full_left-view" />
    <view preserveAspectRatio="xMidYMid meet " viewBox="200 400 100 100" id="bach_siel_full_right-view" />

    <use x="0" y="0" width="200" height="200" id="bach_siel_full_left" xlink:href="#bach_siel_full_left-symbol"></use>
    <use x="200" y="0" width="200" height="200" id="bach_siel_full_right" xlink:href="#bach_siel_full_right-symbol"></use>

</svg>